<svg width="50" height="50" viewBox="0 0 50 50" fill="none" xmlns="http://www.w3.org/2000/svg">
<path d="M25 4.6875C20.9826 4.6875 17.0554 5.87881 13.715 8.11077C10.3746 10.3427 7.77111 13.5151 6.23371 17.2267C4.6963 20.9384 4.29405 25.0225 5.07781 28.9628C5.86157 32.903 7.79615 36.5224 10.6369 39.3631C13.4777 42.2039 17.097 44.1384 21.0372 44.9222C24.9775 45.706 29.0616 45.3037 32.7733 43.7663C36.4849 42.2289 39.6573 39.6254 41.8892 36.285C44.1212 32.9446 45.3125 29.0174 45.3125 25C45.3068 19.6145 43.1649 14.4513 39.3568 10.6432C35.5487 6.83507 30.3855 4.69319 25 4.6875ZM28.125 35.9375H26.5625V37.5C26.5625 37.9144 26.3979 38.3118 26.1049 38.6049C25.8118 38.8979 25.4144 39.0625 25 39.0625C24.5856 39.0625 24.1882 38.8979 23.8952 38.6049C23.6021 38.3118 23.4375 37.9144 23.4375 37.5V35.9375H21.875C20.2174 35.9375 18.6277 35.279 17.4556 34.1069C16.2835 32.9348 15.625 31.3451 15.625 29.6875C15.625 29.2731 15.7896 28.8757 16.0827 28.5826C16.3757 28.2896 16.7731 28.125 17.1875 28.125C17.6019 28.125 17.9993 28.2896 18.2924 28.5826C18.5854 28.8757 18.75 29.2731 18.75 29.6875C18.75 30.5163 19.0792 31.3112 19.6653 31.8972C20.2514 32.4833 21.0462 32.8125 21.875 32.8125H28.125C28.9538 32.8125 29.7487 32.4833 30.3347 31.8972C30.9208 31.3112 31.25 30.5163 31.25 29.6875C31.25 28.8587 30.9208 28.0638 30.3347 27.4778C29.7487 26.8917 28.9538 26.5625 28.125 26.5625H22.6563C20.9987 26.5625 19.4089 25.904 18.2368 24.7319C17.0647 23.5598 16.4063 21.9701 16.4063 20.3125C16.4063 18.6549 17.0647 17.0652 18.2368 15.8931C19.4089 14.721 20.9987 14.0625 22.6563 14.0625H23.4375V12.5C23.4375 12.0856 23.6021 11.6882 23.8952 11.3951C24.1882 11.1021 24.5856 10.9375 25 10.9375C25.4144 10.9375 25.8118 11.1021 26.1049 11.3951C26.3979 11.6882 26.5625 12.0856 26.5625 12.5V14.0625H27.3438C29.0014 14.0625 30.5911 14.721 31.7632 15.8931C32.9353 17.0652 33.5938 18.6549 33.5938 20.3125C33.5938 20.7269 33.4291 21.1243 33.1361 21.4174C32.8431 21.7104 32.4457 21.875 32.0313 21.875C31.6169 21.875 31.2194 21.7104 30.9264 21.4174C30.6334 21.1243 30.4688 20.7269 30.4688 20.3125C30.4688 19.4837 30.1395 18.6888 29.5535 18.1028C28.9674 17.5167 28.1726 17.1875 27.3438 17.1875H22.6563C21.8275 17.1875 21.0326 17.5167 20.4466 18.1028C19.8605 18.6888 19.5313 19.4837 19.5313 20.3125C19.5313 21.1413 19.8605 21.9362 20.4466 22.5222C21.0326 23.1083 21.8275 23.4375 22.6563 23.4375H28.125C29.7826 23.4375 31.3723 24.096 32.5444 25.2681C33.7165 26.4402 34.375 28.0299 34.375 29.6875C34.375 31.3451 33.7165 32.9348 32.5444 34.1069C31.3723 35.279 29.7826 35.9375 28.125 35.9375Z" fill="white"/>
</svg>
