<svg width="50" height="50" viewBox="0 0 50 50" fill="none" xmlns="http://www.w3.org/2000/svg">
<path d="M44.1406 17.2031C44.0625 17.0078 43.9805 16.8125 43.8965 16.6172C42.6363 13.711 40.597 11.21 38.0039 9.39062H42.1875C42.6019 9.39062 42.9993 9.226 43.2924 8.93298C43.5854 8.63995 43.75 8.24253 43.75 7.82812C43.75 7.41372 43.5854 7.0163 43.2924 6.72327C42.9993 6.43024 42.6019 6.26562 42.1875 6.26562H21.875C17.5549 6.27111 13.3948 7.90108 10.2209 10.8319C7.04692 13.7627 5.09125 17.7799 4.74219 22.0859C3.3925 22.4214 2.19328 23.1975 1.33435 24.2914C0.475423 25.3852 0.00586234 26.7343 0 28.125C0 28.5394 0.16462 28.9368 0.457646 29.2299C0.750671 29.5229 1.1481 29.6875 1.5625 29.6875C1.9769 29.6875 2.37433 29.5229 2.66735 29.2299C2.96038 28.9368 3.125 28.5394 3.125 28.125C3.12536 27.5552 3.2815 26.9964 3.57652 26.5089C3.87154 26.0215 4.29421 25.624 4.79883 25.3594C5.18775 28.865 6.6495 32.165 8.98438 34.8086L11.4375 41.6758C11.6544 42.2832 12.0539 42.8086 12.5812 43.18C13.1085 43.5514 13.7378 43.7505 14.3828 43.75H16.8672C17.5118 43.7501 18.1407 43.5508 18.6676 43.1794C19.1946 42.8081 19.5938 42.2829 19.8105 41.6758L20.1855 40.625H31.377L31.752 41.6758C31.9687 42.2829 32.3679 42.8081 32.8949 43.1794C33.4218 43.5508 34.0507 43.7501 34.6953 43.75H37.1797C37.8243 43.7501 38.4532 43.5508 38.9801 43.1794C39.5071 42.8081 39.9063 42.2829 40.123 41.6758L43.2891 32.8125H43.75C44.9932 32.8125 46.1855 32.3186 47.0646 31.4396C47.9436 30.5605 48.4375 29.3682 48.4375 28.125V21.875C48.4377 20.6993 47.996 19.5665 47.2001 18.7011C46.4042 17.8358 45.3122 17.3011 44.1406 17.2031ZM29.6875 14.0625H21.875C21.4606 14.0625 21.0632 13.8979 20.7701 13.6049C20.4771 13.3118 20.3125 12.9144 20.3125 12.5C20.3125 12.0856 20.4771 11.6882 20.7701 11.3951C21.0632 11.1021 21.4606 10.9375 21.875 10.9375H29.6875C30.1019 10.9375 30.4993 11.1021 30.7924 11.3951C31.0854 11.6882 31.25 12.0856 31.25 12.5C31.25 12.9144 31.0854 13.3118 30.7924 13.6049C30.4993 13.8979 30.1019 14.0625 29.6875 14.0625ZM35.1562 25C34.6927 25 34.2396 24.8625 33.8541 24.605C33.4687 24.3475 33.1683 23.9814 32.9909 23.5532C32.8135 23.1249 32.7671 22.6536 32.8575 22.199C32.948 21.7444 33.1712 21.3267 33.499 20.999C33.8267 20.6712 34.2444 20.448 34.699 20.3575C35.1537 20.2671 35.6249 20.3135 36.0532 20.4909C36.4814 20.6683 36.8475 20.9687 37.105 21.3541C37.3625 21.7396 37.5 22.1927 37.5 22.6562C37.5 23.2779 37.2531 23.874 36.8135 24.3135C36.374 24.7531 35.7779 25 35.1562 25Z" fill="white"/>
</svg>
